# AST/ASF file generated using VICON BodyLanguage
# -----------------------------------------------
:version 1.10
:name VICON
:units
  mass 1.0
  length 0.45
  angle deg
:documentation
   .ast/.asf automatically generated from VICON data using
   VICON BodyBuilder and BodyLanguage model FoxedUp or BRILLIANT.MOD
:root
   order TX TY TZ RX RY RZ
   axis XYZ
   position 0 0 0  
   orientation 0 0 0 
:bonedata
  begin
     id 1 
     name lhipjoint
     direction 0.661853 -0.702389 0.261917 
     length 2.64193 
     axis 0 0 0  XYZ
  end
  begin
     id 2 
     name lfemur
     direction 0.34202 -0.939693 0  
     length 7.01722  
     axis 0 0 20  XYZ
    dof rx ry rz
    limits (-160.0 20.0)
           (-70.0 70.0)
           (-60.0 70.0)
  end
  begin
     id 3 
     name ltibia
     direction 0.34202 -0.939693 0   
     length 8.25008   
     axis 0 0 20   XYZ
    dof rx
    limits (-10.0 170.0)
  end
  begin
     id 4 
     name lfoot
     direction 0.0709916 -0.195048 0.978221   
     length 2.31941   
     axis -90 7.62852e-016 20   XYZ
    dof rx rz
    limits (-45.0 90.0)
           (-70.0 20.0)
  end
  begin
     id 5 
     name ltoes
     direction 1.53586e-011 -4.22017e-011 1   
     length 1.16486   
     axis -90 7.62852e-016 20   XYZ
    dof rx
    limits (-90.0 20.0)
  end
  begin
     id 6 
     name rhipjoint
     direction -0.638185 -0.721362 0.268992   
     length 2.57244  
     axis 0 0 0  XYZ 
  end
  begin
     id 7 
     name rfemur
     direction -0.34202 -0.939693 0   
     length 7.07017   
     axis 0 0 -20   XYZ
    dof rx ry rz
    limits (-160.0 20.0)
           (-70.0 70.0)
           (-70.0 60.0)
  end
  begin
     id 8 
     name rtibia
     direction -0.34202 -0.939693 0   
     length 8.20386   
     axis 0 0 -20   XYZ
    dof rx
    limits (-10.0 170.0)
 end
 begin
     id 9 
     name rfoot
     direction -0.0822429 -0.225961 0.970658   
     length 2.32215  
     axis -90 -7.62852e-016 -20   XYZ
    dof rx rz
    limits (-45.0 90.0)
           (-20.0 70.0)
  end
  begin
     id 10 
     name rtoes
     direction -1.53597e-011 -4.21689e-011 1   
     length 1.16333   
     axis -90 -7.62852e-016 -20   XYZ
    dof rx
    limits (-90.0 20.0)
  end
  begin
     id 11 
     name lowerback
     direction -0.0131557 0.998589 -0.0514484   
     length 2.14993   
     axis 0 0 0   XYZ
    dof rx ry rz
    limits (-20.0 45.0)
           (-30.0 30.0)
           (-30.0 30.0)
  end
  begin
     id 12 
     name upperback
     direction -0.000776481 0.999993 0.00352685   
     length 2.15301   
     axis 0 0 0   XYZ
    dof rx ry rz
    limits (-20.0 45.0)
           (-30.0 30.0)
           (-30.0 30.0)
  end
  begin
     id 13 
     name thorax
     direction 0.00438186 0.999609 0.0276143   
     length 2.15424   
     axis 0 0 0   XYZ
    dof rx ry rz
    limits (-20.0 45.0)
           (-30.0 30.0)
           (-30.0 30.0)
  end
  begin
     id 14 
     name lowerneck
     direction -0.0488006 0.998094 0.0377807   
     length 1.90481   
     axis 0 0 0   XYZ
    dof rx ry rz
    limits (-20.0 45.0)
           (-30.0 30.0)
           (-30.0 30.0)
  end
  begin
     id 15 
     name upperneck
     direction 0.0443769 0.990702 -0.12861   
     length 1.91305   
     axis 0 0 0   XYZ
    dof rx ry rz
    limits (-20.0 45.0)
           (-30.0 30.0)
           (-30.0 30.0)
  end
  begin
     id 16
     name head
     direction 0.0165599 0.998647 -0.0492982  
     length 1.92369  
     axis 0 0 0   XYZ
    dof rx ry rz
    limits (-20.0 45.0)
           (-30.0 30.0)
           (-30.0 30.0)
  end
  begin
     id 17 
     name lclavicle
     direction 0.911936 0.410197 -0.0105506  
     length 3.52622  
     axis 0 0 0   XYZ
    dof ry rz
    limits (-20.0 10.0)
           (0.0 20.0)
  end
  begin
     id 18 
     name lhumerus
     direction 1 -4.48974e-011 -2.48591e-028   
     length 5.47651   
     axis 180 -30 -90   XYZ
    dof rx ry rz
    limits (-60.0 90.0)
           (-90.0 90.0)
           (-90.0 90.0)
  end
  begin
     id 19
     name lradius
     direction 1 -4.48938e-011 -4.40099e-027   
     length 3.09058   
     axis 180 -30 -90   XYZ
    dof rx
    limits (-10.0 170.0)
  end
  begin
     id 20
     name lwrist
     direction 1 -4.49042e-011 -2.99852e-027   
     length 1.54529   
     axis 1.95339e-015 90 90   XYZ
    dof ry
    limits (-180.0 0.0)
 end
  begin
     id 21 
     name lhand
     direction 1 -4.48815e-011 -5.98193e-027   
     length 0.771611   
     axis 3.82337e-015 90 90   XYZ
    dof rx rz
    limits (-90.0 90.0)
           (-45.0 45.0)
  end
  begin
     id 22 
     name lfingers
     direction 1 -4.49034e-011 -1.1993e-026   
     length 0.622093   
     axis 7.64668e-015 90 90   XYZ
    dof rx
    limits (0.0 90.0)
  end
  begin
     id 23
     name lthumb
     direction 0.707107 -6.34867e-011 0.707107   
     length 0.893204   
     axis -90 45 -1.62303e-014   XYZ
    dof rx rz
    limits (-45.0 45.0)
           (-45.0 45.0)
  end
  begin
     id 24 
     name rclavicle
     direction -0.93442 0.355634 -0.0195692   
     length 3.62463  
     axis 0 0 0   XYZ 
    dof ry rz
    limits (-10.0 20.0)
           (-20.0 0.0)
  end
  begin
     id 25 
     name rhumerus
     direction -1 -4.48957e-011 -1.19147e-027  
     length 5.14182   
     axis 180 30 90   XYZ
    dof rx ry rz
    limits (-90.0 60.0)
           (-90.0 90.0)
           (-90.0 90.0)
  end
  begin
     id 26 
     name rradius
     direction -1 -4.48952e-011 -3.81062e-027   
     length 3.35565   
     axis 180 30 90   XYZ
    dof rx
    limits (-10.0 170.0)
  end
  begin
     id 27 
     name rwrist
     direction -1 -4.48973e-011 -2.99621e-027   
     length 1.67782   
     axis 1.95339e-015 -90 -90   XYZ
    dof ry
    limits (-180.0 0.0)
  end
  begin
     id 28
     name rhand
     direction -1 -4.48895e-011 -5.98727e-027   
     length 0.801042   
     axis 3.82337e-015 -90 -90   XYZ
    dof rx rz
    limits (-90.0 90.0)
           (-45.0 45.0)
  end
  begin
     id 29
     name rfingers
     direction -1 -4.49065e-011 -1.19972e-026   
     length 0.645821   
     axis 7.64668e-015 -90 -90   XYZ
    dof rx
    limits (0.0 90.0)
  end
  begin
     id 30
     name rthumb
     direction -0.707107 -6.34957e-011 0.707107   
     length 0.927273   
     axis -90 -45 1.62303e-014   XYZ
    dof rx rz
    limits (-45.0 45.0)
           (-45.0 45.0)
  end
:hierarchy
  begin
    root lhipjoint rhipjoint lowerback
    lhipjoint lfemur
    lfemur ltibia
    ltibia lfoot
    lfoot ltoes
    rhipjoint rfemur
    rfemur rtibia
    rtibia rfoot
    rfoot rtoes
    lowerback upperback
    upperback thorax
    thorax lowerneck lclavicle rclavicle
    lowerneck upperneck
    upperneck head
    lclavicle lhumerus
    lhumerus lradius
    lradius lwrist
    lwrist lhand lthumb
    lhand lfingers
    rclavicle rhumerus
    rhumerus rradius
    rradius rwrist
    rwrist rhand rthumb
    rhand rfingers
  end

#!OML:ASF E:\Style4\Style4.ASF
:FULLY-SPECIFIED
:DEGREES
1
root -0.58832 18.0588 -0.491264 1.36858 -11.6496 1.21764
lowerback 6.32331 -0.182498 -2.09284
upperback 5.30881 -0.355805 0.448089
thorax 1.94655 -0.255356 1.65015
lowerneck -2.57339 -1.02905 -2.96464
upperneck 10.2759 -1.27546 0.669178
head 3.82215 -0.72095 0.689058
rclavicle 1.59525e-014 8.34896e-015
rhumerus -43.651 29.7588 -37.1997
rradius 91.4113
rwrist -67.4758
rhand 3.50238 1.46822
rfingers 7.12502
rthumb 28.9405 -26.3058
lclavicle 1.59525e-014 8.34896e-015
lhumerus -75.6367 -28.5382 108.336
lradius 78.1603
lwrist 55.1833
lhand -12.7092 40.9851
lfingers 7.12502
lthumb 13.3735 70.5358
rfemur -9.86117 4.88486 20.0672
rtibia 22.8428
rfoot -14.2429 -12.9688
rtoes -14.1038
lfemur -3.65329 0.872904 -17.5788
ltibia 18.1924
lfoot -17.4636 18.3701
ltoes -14.1612
2
root -0.598371 18.0572 -0.491178 1.24032 -11.4437 1.38643
lowerback 6.37222 -0.173309 -2.50151
upperback 5.26004 -0.361501 0.354692
thorax 1.8727 -0.266827 1.78395
lowerneck -2.52478 -0.990638 -3.04832
upperneck 10.3986 -1.24663 0.935193
head 3.85961 -0.69999 0.793719
rclavicle 2.69602e-014 1.98785e-015
rhumerus -42.6601 30.1813 -35.1607
rradius 91.5996
rwrist -67.856
rhand 3.66007 1.34089
rfingers 7.12502
rthumb 29.0911 -26.4072
lclavicle 2.69602e-014 1.98785e-015
lhumerus -75.5499 -28.6219 108.102
lradius 78.1014
lwrist 54.8072
lhand -13.0298 40.71
lfingers 7.12502
lthumb 13.0645 70.2809
rfemur -9.81772 4.75769 19.9095
rtibia 23.1198
rfoot -14.705 -12.868
rtoes -12.793
lfemur -3.53823 0.79583 -17.716
ltibia 18.0963
lfoot -17.3223 18.2826
ltoes -14.3321
3
root -0.60591 18.0531 -0.491944 1.181 -11.2929 1.5922
lowerback 6.35567 -0.148321 -2.90996
upperback 5.20041 -0.344739 0.226198
thorax 1.82264 -0.266258 1.88003
lowerneck -2.41687 -0.940502 -3.07428
upperneck 10.3941 -1.20551 1.18152
head 3.8391 -0.670669 0.882092
rclavicle 1.97045e-014 -1.17283e-014
rhumerus -41.6389 30.5463 -33.1856
rradius 91.7992
rwrist -68.0837
rhand 3.87119 1.18112
rfingers 7.12502
rthumb 29.2927 -26.5319
lclavicle 1.97045e-014 -1.17283e-014
lhumerus -75.4198 -28.6815 107.781
lradius 78.0544
lwrist 54.4548
lhand -13.2418 40.5047
lfingers 7.12502
lthumb 12.8601 70.0885
rfemur -9.89399 4.63683 19.7074
rtibia 23.2375
rfoot -14.5199 -12.9136
rtoes -12.9003
lfemur -3.61932 0.780725 -17.9034
ltibia 18.2186
lfoot -17.2797 18.1883
ltoes -14.5452
4
root -0.615078 18.0486 -0.49302 1.06531 -11.1451 1.6635
lowerback 6.39372 -0.127171 -3.15289
upperback 5.19072 -0.327592 0.109428
thorax 1.7924 -0.261855 1.89539
lowerneck -2.36421 -0.885296 -3.10014
upperneck 10.3954 -1.15842 1.45543
head 3.83159 -0.637231 0.979876
rclavicle 2.73329e-015 2.1916e-014
rhumerus -40.5727 30.8583 -31.1947
rradius 91.9681
rwrist -68.4344
rhand 4.19169 1.16342
rfingers 7.12502
rthumb 29.5987 -26.4958
lclavicle 2.73329e-015 2.1916e-014
lhumerus -75.2709 -28.6839 107.363
lradius 78.0721
lwrist 54.1523
lhand -13.2776 40.2491
lfingers 7.12502
lthumb 12.8256 69.8351
rfemur -9.84835 4.53769 19.6804
rtibia 23.3046
rfoot -14.2344 -12.9732
rtoes -12.6752
lfemur -3.63445 0.888858 -17.9216
ltibia 18.3809
lfoot -17.1819 18.0244
ltoes -15.0478
5
root -0.624379 18.0466 -0.492887 0.99884 -10.9857 1.49801
lowerback 6.42091 -0.107031 -3.12473
upperback 5.17643 -0.299885 0.0338343
thorax 1.76004 -0.245129 1.80057
lowerneck -2.31425 -0.845833 -3.05677
upperneck 10.4274 -1.13359 1.69726
head 3.83478 -0.613673 1.05398
rclavicle -1.15078e-015 1.40951e-014
rhumerus -39.4869 31.1463 -29.2137
rradius 92.0966
rwrist -68.7807
rhand 4.44689 1.32774
rfingers 7.12502
rthumb 29.8423 -26.288
lclavicle -1.15078e-015 1.40951e-014
lhumerus -75.1429 -28.7494 106.962
lradius 78.0569
lwrist 53.9349
lhand -13.2435 40.0836
lfingers 7.12502
lthumb 12.8585 69.6675
rfemur -9.69411 4.46903 19.9073
rtibia 23.2858
rfoot -14.2376 -12.9658
rtoes -11.8568
lfemur -3.68699 0.947493 -17.6767
ltibia 18.6247
lfoot -17.1856 17.8039
ltoes -14.9651
6
root -0.632128 18.044 -0.488114 0.965291 -10.7917 1.36368
lowerback 6.35798 -0.0693701 -3.07828
upperback 5.17843 -0.244506 -0.0406964
thorax 1.79303 -0.215219 1.69481
lowerneck -2.28905 -0.832823 -3.09915
upperneck 10.4352 -1.14522 2.01235
head 3.83742 -0.608134 1.16637
rclavicle -1.47225e-015 1.06847e-014
rhumerus -38.4134 31.3405 -27.1859
rradius 92.239
rwrist -68.9489
rhand 4.76637 1.35515
rfingers 7.12502
rthumb 30.1471 -26.2054
lclavicle -1.47225e-015 1.06847e-014
lhumerus -74.9557 -28.9761 106.627
lradius 78.0317
lwrist 53.875
lhand -13.189 40.0894
lfingers 7.12502
lthumb 12.911 69.67
rfemur -9.54754 4.32803 20.0895
rtibia 23.2154
rfoot -14.1577 -13.0727
rtoes -12.3095
lfemur -3.80511 0.989809 -17.4781
ltibia 18.9485
lfoot -17.2489 17.5442
ltoes -14.8449
